Coordinates
version=1
nRows=5
nColumns=40
inDegrees=yes

Units are S.I. units (second, meters, Newtons, ...)
If the header above contains a line with 'inDegrees', this indicates whether rotational values are in degrees (yes) or radians (no).

endheader
time	pelvis_tilt	pelvis_list	pelvis_rotation	pelvis_tx	pelvis_ty	pelvis_tz	hip_flexion_r	hip_adduction_r	hip_rotation_r	knee_angle_r	knee_angle_r_beta	ankle_angle_r	subtalar_angle_r	mtp_angle_r	hip_flexion_l	hip_adduction_l	hip_rotation_l	knee_angle_l	knee_angle_l_beta	ankle_angle_l	subtalar_angle_l	mtp_angle_l	lumbar_extension	lumbar_bending	lumbar_rotation	arm_flex_r	arm_add_r	arm_rot_r	elbow_flex_r	pro_sup_r	wrist_flex_r	wrist_dev_r	arm_flex_l	arm_add_l	arm_rot_l	elbow_flex_l	pro_sup_l	wrist_flex_l	wrist_dev_l
      5.11000000	    -14.11605482	      0.45905579	     -0.88791899	     -0.29003816	      0.97248333	     -0.89701930	     26.66237354	     -8.03728356	    -19.13974717	     20.73812060	      0.36194849	    -16.19852212	      0.00000000	      0.00000000	     26.90603323	    -11.99393808	    -19.46076930	     23.41729869	      0.40870896	    -20.04962672	      0.00000000	      0.00000000	    -19.25864209	    -16.04397634	    -50.28850546	     31.72203556	    -21.76244354	     89.63694425	     75.00981229	      3.01080019	      0.00000000	      0.00000000	    -71.30760765	      1.71091962	    -28.39741798	    111.32980091	     88.09119978	      0.00000000	      0.00000000
      5.11500000	    -13.92134618	      0.61002685	     -0.81460791	     -0.28624775	      0.98565149	     -0.89685653	     24.68639621	     -7.67672496	    -19.20222515	     16.93076904	      0.29549766	    -21.19093735	      0.00000000	      0.00000000	     25.01994135	    -11.28363616	    -19.60963031	     19.72763232	      0.34431214	    -24.76328009	      0.00000000	      0.00000000	    -18.53742176	    -16.22287229	    -50.50138508	     31.68524615	    -21.73764052	     89.64126132	     74.88618941	      3.00496268	      0.00000000	      0.00000000	    -71.51583601	      1.97772491	    -28.47695503	    111.25656976	     88.08966407	      0.00000000	      0.00000000
      5.12000000	    -13.76984951	      0.75045570	     -0.76952128	     -0.28242371	      0.99871594	     -0.89658361	     22.85144347	     -7.32574694	    -19.25679057	     13.23657768	      0.23102186	    -26.17845914	      0.00000000	      0.00000000	     23.22266919	    -10.62541261	    -19.62128865	     16.06478873	      0.28038346	    -29.26602676	      0.00000000	      0.00000000	    -17.75840708	    -16.41928978	    -50.65805494	     31.64692496	    -21.70412565	     89.64381558	     74.79990389	      2.98909800	      0.00000000	      0.00000000	    -71.68261340	      2.21064394	    -28.54454950	    111.31806669	     88.09315301	      0.00000000	      0.00000000
      5.12500000	    -13.69935435	      0.86598720	     -0.61391607	     -0.27886099	      1.01166313	     -0.89634772	     21.25561974	     -7.04549864	    -19.33018439	      9.84680102	      0.17185910	    -30.86279606	      0.00000000	      0.00000000	     21.62773919	     -9.99817713	    -19.41956852	     12.52131774	      0.21853822	    -32.99416331	      0.00000000	      0.00000000	    -16.95763578	    -16.58499616	    -50.86462682	     31.51584418	    -21.65959185	     89.64660120	     74.73959962	      2.99070174	      0.00000000	      0.00000000	    -71.85169964	      2.40696914	    -28.61267695	    111.38351093	     88.09359477	      0.00000000	      0.00000000
      5.13000000	    -13.68270599	      0.97041899	     -0.55938946	     -0.27540269	      1.02440576	     -0.89600326	     19.87804585	     -6.78186315	    -19.44786110	      6.74629881	      0.11774513	    -34.75059470	      0.00000000	      0.00000000	     20.17332612	     -9.47041169	    -19.26256050	      9.38916498	      0.16387184	    -36.34068374	      0.00000000	      0.00000000	    -16.07757644	    -16.72247985	    -50.98793285	     31.51765552	    -21.60832689	     89.64527177	     74.66579210	      2.98672606	      0.00000000	      0.00000000	    -71.96952530	      2.56134830	    -28.56400911	    111.46894077	     88.08734978	      0.00000000	      0.00000000
